<svg xmlns="http://www.w3.org/2000/svg" xmlns:xlink="http://www.w3.org/1999/xlink" width="162" zoomAndPan="magnify" viewBox="0 0 121.5 31.5" height="42" preserveAspectRatio="xMidYMid meet" version="1.0"><defs><g/><clipPath id="21ad33eea7"><path d="M 75.050781 3.101562 L 101.628906 3.101562 L 101.628906 28 L 75.050781 28 Z M 75.050781 3.101562 " clip-rule="nonzero"/></clipPath></defs><g clip-path="url(#21ad33eea7)"><path fill="#767676" d="M 85.175781 12.738281 L 88.3125 12.738281 C 89.097656 12.738281 89.097656 11.53125 88.3125 11.53125 L 79.9375 11.53125 C 79.152344 11.53125 79.152344 10.324219 79.9375 10.324219 L 83.804688 10.324219 C 84.59375 10.324219 84.566406 9.183594 83.914062 9.128906 L 81.703125 9.128906 C 80.914062 9.128906 80.914062 7.921875 81.703125 7.921875 L 82.285156 7.921875 C 82.488281 7.894531 82.746094 7.636719 82.746094 7.335938 C 82.746094 7.039062 82.53125 6.792969 82.246094 6.742188 L 80.101562 6.742188 C 79.3125 6.742188 79.3125 5.53125 80.101562 5.53125 L 82.351562 5.53125 C 83.140625 5.53125 83.113281 4.394531 82.460938 4.339844 L 77.738281 4.339844 C 76.953125 4.339844 76.953125 3.128906 77.738281 3.128906 L 84.59375 3.144531 C 84.90625 3.183594 85.164062 3.347656 85.339844 3.617188 L 89.316406 9.765625 C 89.738281 10.417969 90.6875 10.417969 91.121094 9.765625 L 95.140625 3.617188 C 95.34375 3.308594 95.667969 3.128906 96.035156 3.128906 L 99.605469 3.128906 C 100.472656 3.128906 100.976562 4.09375 100.484375 4.8125 L 93.78125 14.613281 C 93.523438 14.980469 93.523438 15.453125 93.78125 15.820312 L 100.851562 26.191406 C 101.339844 26.910156 100.824219 27.871094 99.96875 27.871094 L 96.222656 27.871094 C 95.84375 27.871094 95.53125 27.695312 95.328125 27.382812 L 90.984375 20.761719 C 90.566406 20.109375 89.613281 20.109375 89.195312 20.761719 L 84.824219 27.398438 C 84.621094 27.710938 84.292969 27.886719 83.929688 27.886719 L 78.796875 27.886719 C 78.703125 27.535156 78.960938 27.167969 79.328125 27.140625 L 80.210938 27.140625 C 80.996094 27.140625 80.996094 25.933594 80.210938 25.933594 L 77.386719 25.933594 C 76.597656 25.933594 76.597656 24.722656 77.386719 24.722656 L 81.5 24.722656 C 82.285156 24.722656 82.285156 23.515625 81.5 23.515625 C 81.078125 23.515625 80.34375 23.609375 80.34375 22.917969 C 80.34375 22.59375 80.617188 22.320312 80.941406 22.320312 L 84.457031 22.320312 C 85.246094 22.320312 85.246094 21.113281 84.457031 21.113281 L 82.015625 21.113281 C 81.226562 21.113281 81.226562 19.90625 82.015625 19.90625 L 86.058594 19.90625 C 86.847656 19.90625 86.847656 18.699219 86.058594 18.699219 L 83.234375 18.699219 C 82.449219 18.699219 82.449219 17.488281 83.234375 17.488281 C 84.796875 17.488281 86.355469 17.488281 87.917969 17.488281 C 88.707031 17.488281 88.707031 16.28125 87.917969 16.28125 L 86.03125 16.28125 C 85.246094 16.28125 85.246094 15.074219 86.03125 15.074219 L 86.695312 15.074219 C 87.441406 14.992188 87.390625 13.878906 86.628906 13.878906 C 85.894531 13.878906 85.164062 13.878906 84.429688 13.878906 C 83.644531 13.878906 83.644531 12.671875 84.429688 12.671875 L 85.175781 12.671875 Z M 82.789062 15.15625 L 84.457031 15.15625 C 85.246094 15.15625 85.246094 16.363281 84.457031 16.363281 L 82.789062 16.363281 C 81.988281 16.351562 81.988281 15.15625 82.789062 15.15625 Z M 76.992188 7.949219 L 79.800781 7.949219 C 80.589844 7.949219 80.589844 9.15625 79.800781 9.15625 L 76.992188 9.15625 C 76.191406 9.144531 76.191406 7.949219 76.992188 7.949219 Z M 75.851562 3.171875 C 76.179688 3.171875 76.84375 3.117188 76.84375 3.769531 C 76.84375 4.417969 76.179688 4.367188 75.851562 4.367188 C 75.050781 4.378906 75.050781 3.171875 75.851562 3.171875 Z M 80.765625 17.558594 C 81.242188 17.558594 82.070312 17.4375 82.070312 18.15625 C 82.070312 18.875 81.242188 18.753906 80.765625 18.753906 C 79.964844 18.753906 79.964844 17.558594 80.765625 17.558594 Z M 79.394531 12.738281 L 82.351562 12.738281 C 83.140625 12.738281 83.140625 13.949219 82.351562 13.949219 L 79.394531 13.949219 C 78.609375 13.949219 78.609375 12.738281 79.394531 12.738281 Z M 76.164062 19.960938 L 80.34375 19.960938 C 81.132812 19.960938 81.132812 21.167969 80.34375 21.167969 L 76.164062 21.167969 C 75.363281 21.167969 75.363281 19.960938 76.164062 19.960938 Z M 78.242188 22.363281 L 79.355469 22.363281 C 80.140625 22.363281 80.140625 23.570312 79.355469 23.570312 L 78.242188 23.570312 C 77.453125 23.570312 77.453125 22.363281 78.242188 22.363281 Z M 78.242188 22.363281 " fill-opacity="1" fill-rule="evenodd"/></g><g fill="#e5e7eb" fill-opacity="1"><g transform="translate(13.945724, 24.416541)"><g><path d="M 8.21875 -18.34375 C 10.144531 -18.34375 11.835938 -17.960938 13.296875 -17.203125 C 14.765625 -16.453125 15.894531 -15.378906 16.6875 -13.984375 C 17.488281 -12.597656 17.890625 -10.984375 17.890625 -9.140625 C 17.890625 -7.304688 17.488281 -5.703125 16.6875 -4.328125 C 15.894531 -2.953125 14.765625 -1.882812 13.296875 -1.125 C 11.835938 -0.375 10.144531 0 8.21875 0 L 1.8125 0 L 1.8125 -18.34375 Z M 8.09375 -3.125 C 10.019531 -3.125 11.507812 -3.648438 12.5625 -4.703125 C 13.613281 -5.753906 14.140625 -7.234375 14.140625 -9.140625 C 14.140625 -11.054688 13.613281 -12.550781 12.5625 -13.625 C 11.507812 -14.707031 10.019531 -15.25 8.09375 -15.25 L 5.5 -15.25 L 5.5 -3.125 Z M 8.09375 -3.125 "/></g></g></g><g fill="#e5e7eb" fill-opacity="1"><g transform="translate(35.414907, 24.416541)"><g><path d="M 15.34375 -7.59375 C 15.34375 -7.070312 15.3125 -6.597656 15.25 -6.171875 L 4.59375 -6.171875 C 4.6875 -5.117188 5.054688 -4.296875 5.703125 -3.703125 C 6.347656 -3.109375 7.144531 -2.8125 8.09375 -2.8125 C 9.457031 -2.8125 10.429688 -3.398438 11.015625 -4.578125 L 14.984375 -4.578125 C 14.554688 -3.171875 13.75 -2.015625 12.5625 -1.109375 C 11.375 -0.210938 9.910156 0.234375 8.171875 0.234375 C 6.773438 0.234375 5.519531 -0.0703125 4.40625 -0.6875 C 3.289062 -1.3125 2.421875 -2.191406 1.796875 -3.328125 C 1.179688 -4.472656 0.875 -5.789062 0.875 -7.28125 C 0.875 -8.789062 1.175781 -10.113281 1.78125 -11.25 C 2.394531 -12.382812 3.253906 -13.257812 4.359375 -13.875 C 5.460938 -14.488281 6.734375 -14.796875 8.171875 -14.796875 C 9.554688 -14.796875 10.796875 -14.5 11.890625 -13.90625 C 12.984375 -13.3125 13.832031 -12.460938 14.4375 -11.359375 C 15.039062 -10.265625 15.34375 -9.007812 15.34375 -7.59375 Z M 11.53125 -8.640625 C 11.519531 -9.585938 11.179688 -10.347656 10.515625 -10.921875 C 9.847656 -11.492188 9.03125 -11.78125 8.0625 -11.78125 C 7.15625 -11.78125 6.390625 -11.503906 5.765625 -10.953125 C 5.140625 -10.398438 4.757812 -9.628906 4.625 -8.640625 Z M 11.53125 -8.640625 "/></g></g></g><g fill="#e5e7eb" fill-opacity="1"><g transform="translate(54.256403, 24.416541)"><g><path d="M 7.890625 -3.390625 L 11.5625 -14.5625 L 15.484375 -14.5625 L 10.09375 0 L 5.625 0 L 0.265625 -14.5625 L 4.203125 -14.5625 Z M 7.890625 -3.390625 "/></g></g></g></svg>